<?xml version="1.0" encoding="UTF-8"?><svg xmlns="http://www.w3.org/2000/svg" xmlns:xlink="http://www.w3.org/1999/xlink" contentScriptType="text/ecmascript" width="1012.5pt" zoomAndPan="magnify" contentStyleType="text/css" viewBox="0 0 1012.5 487.499991" height="487.499991pt" preserveAspectRatio="xMidYMid meet" version="1.2"><defs><clipPath xml:id="clip1" id="clip1"><path d="M 0.269531 0 L 1011.730469 0 L 1011.730469 487 L 0.269531 487 Z M 0.269531 0 "/></clipPath><clipPath xml:id="clip2" id="clip2"><path d="M 0.269531 0 L 193 0 L 193 405 L 0.269531 405 Z M 0.269531 0 "/></clipPath><filter x="0%" y="0%" width="100%" xmlns:xlink="http://www.w3.org/1999/xlink" xlink:type="simple" filterUnits="objectBoundingBox" xlink:actuate="onLoad" id="alpha" height="100%" xlink:show="other" xml:id="alpha"><feColorMatrix values="0 0 0 0 1 0 0 0 0 1 0 0 0 0 1 0 0 0 1 0" type="matrix" in="SourceGraphic"/></filter><clipPath xml:id="clip4" id="clip4"><path d="M 0.269531 0 L 192 0 L 192 404.945312 L 0.269531 404.945312 Z M 0.269531 0 "/></clipPath><clipPath xml:id="clip3" id="clip3"><rect x="0" width="193" y="0" height="405"/></clipPath><clipPath xml:id="clip5" id="clip5"><path d="M 0.269531 221 L 241 221 L 241 487 L 0.269531 487 Z M 0.269531 221 "/></clipPath><clipPath xml:id="clip7" id="clip7"><path d="M 0.269531 0.0546875 L 239 0.0546875 L 239 266 L 0.269531 266 Z M 0.269531 0.0546875 "/></clipPath><clipPath xml:id="clip6" id="clip6"><rect x="0" width="241" y="0" height="266"/></clipPath><clipPath xml:id="clip8" id="clip8"><rect x="0" width="532" y="0" height="465"/></clipPath><clipPath xml:id="clip9" id="clip9"><rect x="0" width="532" y="0" height="465"/></clipPath><clipPath xml:id="clip11" id="clip11"><path d="M 0.230469 0 L 260 0 L 260 222 L 0.230469 222 Z M 0.230469 0 "/></clipPath><clipPath xml:id="clip10" id="clip10"><rect x="0" width="261" y="0" height="223"/></clipPath><clipPath xml:id="clip12" id="clip12"><path d="M 411 0 L 1011.730469 0 L 1011.730469 142 L 411 142 Z M 411 0 "/></clipPath><clipPath xml:id="clip14" id="clip14"><path d="M 1 0 L 600.730469 0 L 600.730469 141 L 1 141 Z M 1 0 "/></clipPath><clipPath xml:id="clip13" id="clip13"><rect x="0" width="601" y="0" height="142"/></clipPath><clipPath xml:id="clip15" id="clip15"><path d="M 719 0 L 1011.730469 0 L 1011.730469 259 L 719 259 Z M 719 0 "/></clipPath><clipPath xml:id="clip17" id="clip17"><path d="M 1 0 L 292.730469 0 L 292.730469 258 L 1 258 Z M 1 0 "/></clipPath><clipPath xml:id="clip16" id="clip16"><rect x="0" width="293" y="0" height="259"/></clipPath><clipPath xml:id="clip19" id="clip19"><path d="M 1 0 L 292.730469 0 L 292.730469 258 L 1 258 Z M 1 0 "/></clipPath><clipPath xml:id="clip18" id="clip18"><rect x="0" width="293" y="0" height="259"/></clipPath><clipPath xml:id="clip20" id="clip20"><path d="M 83 0 L 1011.730469 0 L 1011.730469 25 L 83 25 Z M 83 0 "/></clipPath><clipPath xml:id="clip22" id="clip22"><path d="M 1 0 L 928.730469 0 L 928.730469 24 L 1 24 Z M 1 0 "/></clipPath><clipPath xml:id="clip21" id="clip21"><rect x="0" width="929" y="0" height="25"/></clipPath><clipPath xml:id="clip23" id="clip23"><path d="M 523 139 L 1011.730469 139 L 1011.730469 487 L 523 487 Z M 523 139 "/></clipPath><clipPath xml:id="clip25" id="clip25"><path d="M 1 1 L 488.730469 1 L 488.730469 348 L 1 348 Z M 1 1 "/></clipPath><clipPath xml:id="clip24" id="clip24"><rect x="0" width="489" y="0" height="348"/></clipPath><clipPath xml:id="clip27" id="clip27"><path d="M 1 1 L 488.730469 1 L 488.730469 348 L 1 348 Z M 1 1 "/></clipPath><clipPath xml:id="clip26" id="clip26"><rect x="0" width="489" y="0" height="348"/></clipPath><clipPath xml:id="clip28" id="clip28"><path d="M 314 363 L 1011.730469 363 L 1011.730469 487 L 314 487 Z M 314 363 "/></clipPath><clipPath xml:id="clip30" id="clip30"><path d="M 1 2 L 697.730469 2 L 697.730469 124 L 1 124 Z M 1 2 "/></clipPath><clipPath xml:id="clip29" id="clip29"><rect x="0" width="698" y="0" height="124"/></clipPath></defs><g xml:id="surface1" id="surface1"><g clip-rule="nonzero" clip-path="url(#clip1)"><path style=" stroke:none;fill-rule:nonzero;fill:rgb(100%,100%,100%);fill-opacity:1;" d="M 0.269531 0 L 1012.230469 0 L 1012.230469 493.988281 L 0.269531 493.988281 Z M 0.269531 0 "/><path style=" stroke:none;fill-rule:nonzero;fill:rgb(100%,100%,100%);fill-opacity:1;" d="M 0.269531 0 L 1012.230469 0 L 1012.230469 487.242188 L 0.269531 487.242188 Z M 0.269531 0 "/></g><g clip-rule="nonzero" clip-path="url(#clip2)"><g mask="url(#mask0)" transform="matrix(1,0,0,1,0.000000000000000056,0)"><g xml:id="surface5" id="surface5" clip-path="url(#clip3)"><g clip-rule="nonzero" clip-path="url(#clip4)"><path style=" stroke:none;fill-rule:nonzero;fill:rgb(5.099487%,79.219055%,94.119263%);fill-opacity:1;" d="M 153.773438 -75.351562 L -11.800781 -138.234375 L -11.800781 404.253906 L 191.167969 221.726562 Z M 153.773438 -75.351562 "/></g></g><mask xml:id="mask0" id="mask0"><g filter="url(#alpha)"><rect x="0" width="1012.5" y="0" height="487.499991" style="fill:rgb(0%,0%,0%);fill-opacity:0.6471;stroke:none;"/></g></mask></g></g><g clip-rule="nonzero" clip-path="url(#clip5)"><g mask="url(#mask1)" transform="matrix(1,0,0,1,0.000000000000000056,221)"><g xml:id="surface8" id="surface8" clip-path="url(#clip6)"><g clip-rule="nonzero" clip-path="url(#clip7)"><path style=" stroke:none;fill-rule:nonzero;fill:rgb(100%,75.689697%,2.749634%);fill-opacity:1;" d="M 191.167969 0.726562 L -11.800781 183.253906 L -11.800781 452.460938 L 238.597656 378.191406 Z M 191.167969 0.726562 "/></g></g><mask xml:id="mask1" id="mask1"><g filter="url(#alpha)"><rect x="0" width="1012.5" y="0" height="487.499991" style="fill:rgb(0%,0%,0%);fill-opacity:0.749;stroke:none;"/></g></mask></g></g><g mask="url(#mask2)" transform="matrix(1,0,0,1,190,22)"><g xml:id="surface11" id="surface11" clip-path="url(#clip8)"><path style=" stroke:none;fill-rule:nonzero;fill:rgb(100%,75.689697%,2.749634%);fill-opacity:1;" d="M 48.597656 577.191406 L 334.015625 492.554688 L 530.355469 118.488281 L 222.160156 1.050781 L 1.167969 199.726562 Z M 48.597656 577.191406 "/></g><mask xml:id="mask2" id="mask2"><g filter="url(#alpha)"><rect x="0" width="1012.5" y="0" height="487.499991" style="fill:rgb(0%,0%,0%);fill-opacity:0.498;stroke:none;"/></g></mask></g><g mask="url(#mask3)" transform="matrix(1,0,0,1,190,22)"><g xml:id="surface14" id="surface14" clip-path="url(#clip9)"><path style=" stroke:none;fill-rule:nonzero;fill:rgb(5.099487%,79.219055%,94.119263%);fill-opacity:1;" d="M 48.597656 577.191406 L 334.015625 492.554688 L 530.355469 118.488281 L 222.160156 1.050781 L 1.167969 199.726562 Z M 48.597656 577.191406 "/></g><mask xml:id="mask3" id="mask3"><g filter="url(#alpha)"><rect x="0" width="1012.5" y="0" height="487.499991" style="fill:rgb(0%,0%,0%);fill-opacity:0.2;stroke:none;"/></g></mask></g><g mask="url(#mask4)" transform="matrix(1,0,0,1,153,0)"><g xml:id="surface17" id="surface17" clip-path="url(#clip10)"><g clip-rule="nonzero" clip-path="url(#clip11)"><path style=" stroke:none;fill-rule:nonzero;fill:rgb(5.099487%,79.219055%,94.119263%);fill-opacity:1;" d="M 259.160156 23.050781 L 0.773438 -75.351562 L 38.167969 221.726562 Z M 259.160156 23.050781 "/></g></g><mask xml:id="mask4" id="mask4"><g filter="url(#alpha)"><rect x="0" width="1012.5" y="0" height="487.499991" style="fill:rgb(0%,0%,0%);fill-opacity:0.749;stroke:none;"/></g></mask></g><g clip-rule="nonzero" clip-path="url(#clip12)"><g mask="url(#mask5)" transform="matrix(1,0,0,1,411,0)"><g xml:id="surface20" id="surface20" clip-path="url(#clip13)"><g clip-rule="nonzero" clip-path="url(#clip14)"><path style=" stroke:none;fill-rule:nonzero;fill:rgb(5.099487%,79.219055%,94.119263%);fill-opacity:1;" d="M 309.355469 140.488281 L 616.191406 -444.152344 L 616.191406 -529.808594 L 1.160156 23.050781 Z M 309.355469 140.488281 "/></g></g><mask xml:id="mask5" id="mask5"><g filter="url(#alpha)"><rect x="0" width="1012.5" y="0" height="487.499991" style="fill:rgb(0%,0%,0%);fill-opacity:0.6;stroke:none;"/></g></mask></g></g><g clip-rule="nonzero" clip-path="url(#clip15)"><g mask="url(#mask6)" transform="matrix(1,0,0,1,719,0)"><g xml:id="surface23" id="surface23" clip-path="url(#clip16)"><g clip-rule="nonzero" clip-path="url(#clip17)"><path style=" stroke:none;fill-rule:nonzero;fill:rgb(5.099487%,79.219055%,94.119263%);fill-opacity:1;" d="M 308.191406 257.414062 L 308.191406 -444.152344 L 1.355469 140.488281 Z M 308.191406 257.414062 "/></g></g><mask xml:id="mask6" id="mask6"><g filter="url(#alpha)"><rect x="0" width="1012.5" y="0" height="487.499991" style="fill:rgb(0%,0%,0%);fill-opacity:0.6;stroke:none;"/></g></mask></g><g mask="url(#mask7)" transform="matrix(1,0,0,1,719,0)"><g xml:id="surface26" id="surface26" clip-path="url(#clip18)"><g clip-rule="nonzero" clip-path="url(#clip19)"><path style=" stroke:none;fill-rule:nonzero;fill:rgb(100%,75.689697%,2.749634%);fill-opacity:1;" d="M 308.191406 257.414062 L 308.191406 -444.152344 L 1.355469 140.488281 Z M 308.191406 257.414062 "/></g></g><mask xml:id="mask7" id="mask7"><g filter="url(#alpha)"><rect x="0" width="1012.5" y="0" height="487.499991" style="fill:rgb(0%,0%,0%);fill-opacity:0.2;stroke:none;"/></g></mask></g></g><g clip-rule="nonzero" clip-path="url(#clip20)"><g mask="url(#mask8)" transform="matrix(1,0,0,1,83,0)"><g xml:id="surface29" id="surface29" clip-path="url(#clip21)"><g clip-rule="nonzero" clip-path="url(#clip22)"><path style=" stroke:none;fill-rule:nonzero;fill:rgb(5.099487%,79.219055%,94.119263%);fill-opacity:1;" d="M 1.074219 -629.570312 L 70.773438 -75.351562 L 329.160156 23.050781 L 944.191406 -529.808594 L 944.191406 -629.570312 Z M 1.074219 -629.570312 "/></g></g><mask xml:id="mask8" id="mask8"><g filter="url(#alpha)"><rect x="0" width="1012.5" y="0" height="487.499991" style="fill:rgb(0%,0%,0%);fill-opacity:0.698;stroke:none;"/></g></mask></g></g><g clip-rule="nonzero" clip-path="url(#clip23)"><g mask="url(#mask9)" transform="matrix(1,0,0,1,523,139)"><g xml:id="surface32" id="surface32" clip-path="url(#clip24)"><g clip-rule="nonzero" clip-path="url(#clip25)"><path style=" stroke:none;fill-rule:nonzero;fill:rgb(5.099487%,79.219055%,94.119263%);fill-opacity:1;" d="M 1.015625 375.554688 L 504.191406 226.503906 L 504.191406 118.414062 L 197.355469 1.488281 Z M 1.015625 375.554688 "/></g></g><mask xml:id="mask9" id="mask9"><g filter="url(#alpha)"><rect x="0" width="1012.5" y="0" height="487.499991" style="fill:rgb(0%,0%,0%);fill-opacity:0.698;stroke:none;"/></g></mask></g><g mask="url(#mask10)" transform="matrix(1,0,0,1,523,139)"><g xml:id="surface35" id="surface35" clip-path="url(#clip26)"><g clip-rule="nonzero" clip-path="url(#clip27)"><path style=" stroke:none;fill-rule:nonzero;fill:rgb(100%,75.689697%,2.749634%);fill-opacity:1;" d="M 1.015625 375.554688 L 504.191406 226.503906 L 504.191406 118.414062 L 197.355469 1.488281 Z M 1.015625 375.554688 "/></g></g><mask xml:id="mask10" id="mask10"><g filter="url(#alpha)"><rect x="0" width="1012.5" y="0" height="487.499991" style="fill:rgb(0%,0%,0%);fill-opacity:0.698;stroke:none;"/></g></mask></g></g><g clip-rule="nonzero" clip-path="url(#clip28)"><g mask="url(#mask11)" transform="matrix(1,0,0,1,314,363)"><g xml:id="surface38" id="surface38" clip-path="url(#clip29)"><g clip-rule="nonzero" clip-path="url(#clip30)"><path style=" stroke:none;fill-rule:nonzero;fill:rgb(100%,75.689697%,2.749634%);fill-opacity:1;" d="M 1.433594 549.242188 L 713.191406 549.242188 L 713.191406 2.503906 L 210.015625 151.554688 Z M 1.433594 549.242188 "/></g></g><mask xml:id="mask11" id="mask11"><g filter="url(#alpha)"><rect x="0" width="1012.5" y="0" height="487.499991" style="fill:rgb(0%,0%,0%);fill-opacity:0.8;stroke:none;"/></g></mask></g></g></g></svg>