<?xml version="1.0" encoding="UTF-8"?><svg xmlns="http://www.w3.org/2000/svg" xmlns:xlink="http://www.w3.org/1999/xlink" contentScriptType="text/ecmascript" width="1190.25pt" zoomAndPan="magnify" contentStyleType="text/css" viewBox="0 0 1190.25 1683.749945" height="1683.749945pt" preserveAspectRatio="xMidYMid meet" version="1.2"><defs><clipPath xml:id="clip1" id="clip1"><path d="M 0 0.40625 L 1189.5 0.40625 L 1189.5 1683.09375 L 0 1683.09375 Z M 0 0.40625 "/></clipPath><filter x="0%" y="0%" width="100%" xmlns:xlink="http://www.w3.org/1999/xlink" xlink:type="simple" filterUnits="objectBoundingBox" xlink:actuate="onLoad" id="alpha" height="100%" xlink:show="other" xml:id="alpha"><feColorMatrix values="0 0 0 0 1 0 0 0 0 1 0 0 0 0 1 0 0 0 1 0" type="matrix" in="SourceGraphic"/></filter><clipPath xml:id="clip2" id="clip2"><rect x="0" width="226" y="0" height="641"/></clipPath><clipPath xml:id="clip3" id="clip3"><path d="M 0 1329 L 328 1329 L 328 1683.09375 L 0 1683.09375 Z M 0 1329 "/></clipPath><clipPath xml:id="clip5" id="clip5"><path d="M 0 1 L 327 1 L 327 354.09375 L 0 354.09375 Z M 0 1 "/></clipPath><clipPath xml:id="clip4" id="clip4"><rect x="0" width="328" y="0" height="355"/></clipPath><clipPath xml:id="clip6" id="clip6"><rect x="0" width="282" y="0" height="535"/></clipPath><clipPath xml:id="clip7" id="clip7"><rect x="0" width="625" y="0" height="680"/></clipPath><clipPath xml:id="clip8" id="clip8"><rect x="0" width="625" y="0" height="680"/></clipPath><clipPath xml:id="clip9" id="clip9"><path d="M 0 0.40625 L 182 0.40625 L 182 539 L 0 539 Z M 0 0.40625 "/></clipPath><clipPath xml:id="clip11" id="clip11"><path d="M 0 0.40625 L 181 0.40625 L 181 538 L 0 538 Z M 0 0.40625 "/></clipPath><clipPath xml:id="clip10" id="clip10"><rect x="0" width="182" y="0" height="539"/></clipPath><clipPath xml:id="clip12" id="clip12"><rect x="0" width="307" y="0" height="353"/></clipPath><clipPath xml:id="clip13" id="clip13"><path d="M 483 3 L 1189.25 3 L 1189.25 793 L 483 793 Z M 483 3 "/></clipPath><clipPath xml:id="clip15" id="clip15"><path d="M 1 0.285156 L 706.25 0.285156 L 706.25 789 L 1 789 Z M 1 0.285156 "/></clipPath><clipPath xml:id="clip14" id="clip14"><rect x="0" width="707" y="0" height="790"/></clipPath><clipPath xml:id="clip16" id="clip16"><path d="M 844 103 L 1189.25 103 L 1189.25 931 L 844 931 Z M 844 103 "/></clipPath><clipPath xml:id="clip18" id="clip18"><path d="M 2 1 L 345.25 1 L 345.25 826 L 2 826 Z M 2 1 "/></clipPath><clipPath xml:id="clip17" id="clip17"><rect x="0" width="346" y="0" height="828"/></clipPath><clipPath xml:id="clip20" id="clip20"><path d="M 2 1 L 345.25 1 L 345.25 826 L 2 826 Z M 2 1 "/></clipPath><clipPath xml:id="clip19" id="clip19"><rect x="0" width="346" y="0" height="828"/></clipPath><clipPath xml:id="clip21" id="clip21"><path d="M 97 0.40625 L 1189.25 0.40625 L 1189.25 655 L 97 655 Z M 97 0.40625 "/></clipPath><clipPath xml:id="clip23" id="clip23"><path d="M 1 0.40625 L 1092.25 0.40625 L 1092.25 654 L 1 654 Z M 1 0.40625 "/></clipPath><clipPath xml:id="clip22" id="clip22"><rect x="0" width="1093" y="0" height="655"/></clipPath><clipPath xml:id="clip24" id="clip24"><path d="M 615 790 L 1189.25 790 L 1189.25 1232 L 615 1232 Z M 615 790 "/></clipPath><clipPath xml:id="clip26" id="clip26"><path d="M 0.210938 1 L 574.25 1 L 574.25 441 L 0.210938 441 Z M 0.210938 1 "/></clipPath><clipPath xml:id="clip25" id="clip25"><rect x="0" width="575" y="0" height="442"/></clipPath><clipPath xml:id="clip28" id="clip28"><path d="M 0.210938 1 L 574.25 1 L 574.25 441 L 0.210938 441 Z M 0.210938 1 "/></clipPath><clipPath xml:id="clip27" id="clip27"><rect x="0" width="575" y="0" height="442"/></clipPath><clipPath xml:id="clip29" id="clip29"><path d="M 279 1229 L 618 1229 L 618 1683.09375 L 279 1683.09375 Z M 279 1229 "/></clipPath><clipPath xml:id="clip31" id="clip31"><path d="M 1 1 L 337 1 L 337 454.09375 L 1 454.09375 Z M 1 1 "/></clipPath><clipPath xml:id="clip30" id="clip30"><rect x="0" width="339" y="0" height="455"/></clipPath><clipPath xml:id="clip32" id="clip32"><path d="M 369 1053 L 1189.25 1053 L 1189.25 1683.09375 L 369 1683.09375 Z M 369 1053 "/></clipPath><clipPath xml:id="clip34" id="clip34"><path d="M 1 2 L 820.25 2 L 820.25 630.09375 L 1 630.09375 Z M 1 2 "/></clipPath><clipPath xml:id="clip33" id="clip33"><rect x="0" width="821" y="0" height="631"/></clipPath></defs><g xml:id="surface1" id="surface1"><g clip-rule="nonzero" clip-path="url(#clip1)"><path style=" stroke:none;fill-rule:nonzero;fill:rgb(100%,100%,100%);fill-opacity:1;" d="M 0 0.40625 L 1192.25 0.40625 L 1192.25 1694.296875 L 0 1694.296875 Z M 0 0.40625 "/><path style=" stroke:none;fill-rule:nonzero;fill:rgb(100%,100%,100%);fill-opacity:1;" d="M 0 0.40625 L 1190 0.40625 L 1190 1683.800781 L 0 1683.800781 Z M 0 0.40625 "/><path style=" stroke:none;fill-rule:nonzero;fill:rgb(100%,100%,100%);fill-opacity:1;" d="M 0 0.40625 L 1190 0.40625 L 1190 1683.800781 L 0 1683.800781 Z M 0 0.40625 "/></g><g mask="url(#mask0)" transform="matrix(1,0,0,1,0,462)"><g xml:id="surface5" id="surface5" clip-path="url(#clip2)"><path style=" stroke:none;fill-rule:nonzero;fill:rgb(5.099487%,79.219055%,94.119263%);fill-opacity:1;" d="M 180.394531 75.628906 L -14.183594 1.730469 L -14.183594 639.242188 L 224.34375 424.742188 Z M 180.394531 75.628906 "/></g><mask xml:id="mask0" id="mask0"><g filter="url(#alpha)"><rect x="0" width="1190.25" y="0" height="1683.749945" style="fill:rgb(0%,0%,0%);fill-opacity:0.6471;stroke:none;"/></g></mask></g><g clip-rule="nonzero" clip-path="url(#clip3)"><g mask="url(#mask1)" transform="matrix(1,0,0,1,0,1329)"><g xml:id="surface8" id="surface8" clip-path="url(#clip4)"><g clip-rule="nonzero" clip-path="url(#clip5)"><path style=" stroke:none;fill-rule:nonzero;fill:rgb(100%,75.689697%,2.749634%);fill-opacity:1;" d="M -14.183594 88.597656 L -14.183594 369.207031 L 326.230469 369.207031 L 280.082031 1.320312 Z M -14.183594 88.597656 "/></g></g><mask xml:id="mask1" id="mask1"><g filter="url(#alpha)"><rect x="0" width="1190.25" y="0" height="1683.749945" style="fill:rgb(0%,0%,0%);fill-opacity:0.898;stroke:none;"/></g></mask></g></g><g mask="url(#mask2)" transform="matrix(1,0,0,1,0,885)"><g xml:id="surface11" id="surface11" clip-path="url(#clip6)"><path style=" stroke:none;fill-rule:nonzero;fill:rgb(100%,75.689697%,2.749634%);fill-opacity:1;" d="M 224.34375 1.742188 L -14.183594 216.242188 L -14.183594 532.597656 L 280.082031 445.320312 Z M 224.34375 1.742188 "/></g><mask xml:id="mask2" id="mask2"><g filter="url(#alpha)"><rect x="0" width="1190.25" y="0" height="1683.749945" style="fill:rgb(0%,0%,0%);fill-opacity:0.749;stroke:none;"/></g></mask></g><g mask="url(#mask3)" transform="matrix(1,0,0,1,223,652)"><g xml:id="surface14" id="surface14" clip-path="url(#clip7)"><path style=" stroke:none;fill-rule:nonzero;fill:rgb(100%,75.689697%,2.749634%);fill-opacity:1;" d="M 57.082031 678.320312 L 392.5 578.859375 L 623.238281 139.273438 L 261.050781 1.265625 L 1.34375 234.742188 Z M 57.082031 678.320312 "/></g><mask xml:id="mask3" id="mask3"><g filter="url(#alpha)"><rect x="0" width="1190.25" y="0" height="1683.749945" style="fill:rgb(0%,0%,0%);fill-opacity:0.498;stroke:none;"/></g></mask></g><g mask="url(#mask4)" transform="matrix(1,0,0,1,223,652)"><g xml:id="surface17" id="surface17" clip-path="url(#clip8)"><path style=" stroke:none;fill-rule:nonzero;fill:rgb(5.099487%,79.219055%,94.119263%);fill-opacity:1;" d="M 57.082031 678.320312 L 392.5 578.859375 L 623.238281 139.273438 L 261.050781 1.265625 L 1.34375 234.742188 Z M 57.082031 678.320312 "/></g><mask xml:id="mask4" id="mask4"><g filter="url(#alpha)"><rect x="0" width="1190.25" y="0" height="1683.749945" style="fill:rgb(0%,0%,0%);fill-opacity:0.2;stroke:none;"/></g></mask></g><g clip-rule="nonzero" clip-path="url(#clip9)"><g mask="url(#mask5)" transform="matrix(1,0,0,1,0,0.000000000000262679)"><g xml:id="surface20" id="surface20" clip-path="url(#clip10)"><g clip-rule="nonzero" clip-path="url(#clip11)"><path style=" stroke:none;fill-rule:nonzero;fill:rgb(5.099487%,79.219055%,94.119263%);fill-opacity:1;" d="M 98.488281 -113.664062 L -14.183594 -113.664062 L -14.183594 463.730469 L 180.394531 537.628906 Z M 98.488281 -113.664062 "/></g></g><mask xml:id="mask5" id="mask5"><g filter="url(#alpha)"><rect x="0" width="1190.25" y="0" height="1683.749945" style="fill:rgb(0%,0%,0%);fill-opacity:0.8;stroke:none;"/></g></mask></g></g><g mask="url(#mask6)" transform="matrix(1,0,0,1,179,536)"><g xml:id="surface23" id="surface23" clip-path="url(#clip12)"><path style=" stroke:none;fill-rule:nonzero;fill:rgb(5.099487%,79.219055%,94.119263%);fill-opacity:1;" d="M 305.050781 117.265625 L 1.394531 1.628906 L 45.34375 350.742188 Z M 305.050781 117.265625 "/></g><mask xml:id="mask6" id="mask6"><g filter="url(#alpha)"><rect x="0" width="1190.25" y="0" height="1683.749945" style="fill:rgb(0%,0%,0%);fill-opacity:0.749;stroke:none;"/></g></mask></g><g clip-rule="nonzero" clip-path="url(#clip13)"><g mask="url(#mask7)" transform="matrix(1,0,0,1,483,3)"><g xml:id="surface26" id="surface26" clip-path="url(#clip14)"><g clip-rule="nonzero" clip-path="url(#clip15)"><path style=" stroke:none;fill-rule:nonzero;fill:rgb(5.099487%,79.219055%,94.119263%);fill-opacity:1;" d="M 363.238281 788.273438 L 723.828125 101.234375 L 723.828125 0.574219 L 1.050781 650.265625 Z M 363.238281 788.273438 "/></g></g><mask xml:id="mask7" id="mask7"><g filter="url(#alpha)"><rect x="0" width="1190.25" y="0" height="1683.749945" style="fill:rgb(0%,0%,0%);fill-opacity:0.6;stroke:none;"/></g></mask></g></g><g clip-rule="nonzero" clip-path="url(#clip16)"><g mask="url(#mask8)" transform="matrix(1,0,0,1,844,103)"><g xml:id="surface29" id="surface29" clip-path="url(#clip17)"><g clip-rule="nonzero" clip-path="url(#clip18)"><path style=" stroke:none;fill-rule:nonzero;fill:rgb(5.099487%,79.219055%,94.119263%);fill-opacity:1;" d="M 362.828125 825.683594 L 362.828125 1.234375 L 2.238281 688.273438 Z M 362.828125 825.683594 "/></g></g><mask xml:id="mask8" id="mask8"><g filter="url(#alpha)"><rect x="0" width="1190.25" y="0" height="1683.749945" style="fill:rgb(0%,0%,0%);fill-opacity:0.6;stroke:none;"/></g></mask></g><g mask="url(#mask9)" transform="matrix(1,0,0,1,844,103)"><g xml:id="surface32" id="surface32" clip-path="url(#clip19)"><g clip-rule="nonzero" clip-path="url(#clip20)"><path style=" stroke:none;fill-rule:nonzero;fill:rgb(100%,75.689697%,2.749634%);fill-opacity:1;" d="M 362.828125 825.683594 L 362.828125 1.234375 L 2.238281 688.273438 Z M 362.828125 825.683594 "/></g></g><mask xml:id="mask9" id="mask9"><g filter="url(#alpha)"><rect x="0" width="1190.25" y="0" height="1683.749945" style="fill:rgb(0%,0%,0%);fill-opacity:0.2;stroke:none;"/></g></mask></g></g><g clip-rule="nonzero" clip-path="url(#clip21)"><g mask="url(#mask10)" transform="matrix(1,0,0,1,97,0.000000000000262679)"><g xml:id="surface35" id="surface35" clip-path="url(#clip22)"><g clip-rule="nonzero" clip-path="url(#clip23)"><path style=" stroke:none;fill-rule:nonzero;fill:rgb(5.099487%,79.219055%,94.119263%);fill-opacity:1;" d="M 1.488281 -113.664062 L 83.394531 537.628906 L 387.050781 653.265625 L 1109.828125 3.574219 L 1109.828125 -113.664062 Z M 1.488281 -113.664062 "/></g></g><mask xml:id="mask10" id="mask10"><g filter="url(#alpha)"><rect x="0" width="1190.25" y="0" height="1683.749945" style="fill:rgb(0%,0%,0%);fill-opacity:0.698;stroke:none;"/></g></mask></g></g><g clip-rule="nonzero" clip-path="url(#clip24)"><g mask="url(#mask11)" transform="matrix(1,0,0,1,615,790)"><g xml:id="surface38" id="surface38" clip-path="url(#clip25)"><g clip-rule="nonzero" clip-path="url(#clip26)"><path style=" stroke:none;fill-rule:nonzero;fill:rgb(5.099487%,79.219055%,94.119263%);fill-opacity:1;" d="M 0.5 440.859375 L 591.828125 265.703125 L 591.828125 138.683594 L 231.238281 1.273438 Z M 0.5 440.859375 "/></g></g><mask xml:id="mask11" id="mask11"><g filter="url(#alpha)"><rect x="0" width="1190.25" y="0" height="1683.749945" style="fill:rgb(0%,0%,0%);fill-opacity:0.698;stroke:none;"/></g></mask></g><g mask="url(#mask12)" transform="matrix(1,0,0,1,615,790)"><g xml:id="surface41" id="surface41" clip-path="url(#clip27)"><g clip-rule="nonzero" clip-path="url(#clip28)"><path style=" stroke:none;fill-rule:nonzero;fill:rgb(100%,75.689697%,2.749634%);fill-opacity:1;" d="M 0.5 440.859375 L 591.828125 265.703125 L 591.828125 138.683594 L 231.238281 1.273438 Z M 0.5 440.859375 "/></g></g><mask xml:id="mask12" id="mask12"><g filter="url(#alpha)"><rect x="0" width="1190.25" y="0" height="1683.749945" style="fill:rgb(0%,0%,0%);fill-opacity:0.698;stroke:none;"/></g></mask></g></g><g clip-rule="nonzero" clip-path="url(#clip29)"><g mask="url(#mask13)" transform="matrix(1,0,0,1,279,1229)"><g xml:id="surface44" id="surface44" clip-path="url(#clip30)"><g clip-rule="nonzero" clip-path="url(#clip31)"><path style=" stroke:none;fill-rule:nonzero;fill:rgb(100%,75.689697%,2.749634%);fill-opacity:1;" d="M 1.082031 101.320312 L 47.230469 469.207031 L 91.378906 469.207031 L 336.5 1.859375 Z M 1.082031 101.320312 "/></g></g><mask xml:id="mask13" id="mask13"><g filter="url(#alpha)"><rect x="0" width="1190.25" y="0" height="1683.749945" style="fill:rgb(0%,0%,0%);fill-opacity:0.698;stroke:none;"/></g></mask></g></g><g clip-rule="nonzero" clip-path="url(#clip32)"><g mask="url(#mask14)" transform="matrix(1,0,0,1,369,1053)"><g xml:id="surface47" id="surface47" clip-path="url(#clip33)"><g clip-rule="nonzero" clip-path="url(#clip34)"><path style=" stroke:none;fill-rule:nonzero;fill:rgb(100%,75.689697%,2.749634%);fill-opacity:1;" d="M 1.378906 645.207031 L 837.828125 645.207031 L 837.828125 2.703125 L 246.5 177.859375 Z M 1.378906 645.207031 "/></g></g><mask xml:id="mask14" id="mask14"><g filter="url(#alpha)"><rect x="0" width="1190.25" y="0" height="1683.749945" style="fill:rgb(0%,0%,0%);fill-opacity:0.8;stroke:none;"/></g></mask></g></g></g></svg>