<?xml version="1.0" encoding="UTF-8"?><svg xmlns="http://www.w3.org/2000/svg" xmlns:xlink="http://www.w3.org/1999/xlink" contentScriptType="text/ecmascript" width="375pt" zoomAndPan="magnify" contentStyleType="text/css" viewBox="0 0 375 374.999991" height="374.999991pt" preserveAspectRatio="xMidYMid meet" version="1.2"><g xml:id="surface1" id="surface1"><path style=" stroke:none;fill-rule:nonzero;fill:rgb(5.099487%,79.219055%,94.119263%);fill-opacity:1;" d="M 0.0664062 18.867188 L 0.0664062 308.78125 C 0.0664062 310.972656 1.261719 313.296875 3.222656 314.359375 C 7.90625 316.851562 12.621094 319.34375 17.273438 321.765625 C 37.601562 332.496094 57.960938 343.257812 78.292969 354.019531 C 91.144531 360.796875 103.96875 367.605469 116.820312 374.382812 C 121.074219 376.640625 126.519531 373.851562 126.519531 368.800781 C 126.519531 368.636719 126.519531 368.46875 126.519531 368.304688 C 126.621094 364.382812 126.519531 360.429688 126.519531 356.476562 L 126.519531 321.632812 L 248.691406 321.632812 C 255.699219 321.632812 261.578125 315.722656 261.578125 308.78125 L 261.578125 216.238281 C 261.578125 209.03125 255.632812 203.683594 248.691406 203.382812 C 241.75 203.085938 235.835938 209.496094 235.835938 216.238281 L 235.835938 295.925781 L 126.519531 295.925781 L 126.519531 66.566406 C 126.519531 64.375 125.324219 62.082031 123.367188 60.984375 C 118.683594 58.492188 113.964844 56.035156 109.28125 53.578125 C 91.777344 44.3125 74.304688 35.109375 56.765625 25.84375 L 235.835938 25.84375 L 235.835938 97.390625 C 235.835938 104.597656 241.75 109.945312 248.691406 110.246094 C 255.632812 110.542969 261.578125 104.132812 261.578125 97.390625 L 261.578125 12.988281 C 261.578125 5.980469 255.632812 0.132812 248.691406 0.132812 C 248.523438 0.132812 248.390625 0.132812 248.226562 0.132812 C 237.332031 -0.0664062 226.402344 0.132812 215.476562 0.132812 L 6.078125 0.132812 C 4.816406 0.167969 3.6875 0.632812 2.722656 1.363281 C 2.691406 1.394531 2.589844 1.460938 2.523438 1.496094 C 1.894531 1.960938 1.328125 2.558594 0.898438 3.320312 C 0.664062 3.753906 0.433594 4.285156 0.300781 4.75 C 0.300781 4.78125 0.265625 4.847656 0.265625 4.882812 C 0.101562 5.449219 0.0351562 5.980469 0.0351562 6.542969 C 0.0351562 6.710938 0.0351562 6.875 0.0351562 7.074219 C -0.0351562 10.960938 0.0664062 14.914062 0.0664062 18.867188 "/><path style=" stroke:none;fill-rule:nonzero;fill:rgb(5.099487%,79.219055%,94.119263%);fill-opacity:1;" d="M 210.925781 141.96875 L 210.925781 173.355469 C 210.925781 176.8125 213.878906 179.800781 217.367188 179.800781 L 283.800781 179.800781 L 283.800781 216.96875 C 283.800781 221.386719 289.480469 225.574219 293.5 222.515625 C 296.65625 220.09375 299.878906 217.632812 303.066406 215.242188 C 316.984375 204.613281 330.933594 193.949219 344.851562 183.289062 C 353.589844 176.613281 362.359375 169.933594 371.09375 163.226562 C 375.179688 160.101562 375.179688 155.253906 371.09375 152.132812 C 367.90625 149.671875 364.714844 147.25 361.527344 144.855469 C 347.609375 134.226562 333.660156 123.53125 319.742188 112.902344 C 311.003906 106.226562 302.234375 99.550781 293.5 92.839844 C 289.480469 89.75 283.800781 93.96875 283.800781 98.421875 L 283.800781 135.589844 L 217.367188 135.589844 C 213.878906 135.355469 210.925781 138.578125 210.925781 141.96875 "/></g></svg>