<?xml version="1.0" encoding="UTF-8"?><svg xmlns="http://www.w3.org/2000/svg" xmlns:xlink="http://www.w3.org/1999/xlink" contentScriptType="text/ecmascript" width="375pt" zoomAndPan="magnify" contentStyleType="text/css" viewBox="0 0 375 374.999991" height="374.999991pt" preserveAspectRatio="xMidYMid meet" version="1.2"><g xml:id="surface1" id="surface1"><path style=" stroke:none;fill-rule:nonzero;fill:rgb(100%,100%,100%);fill-opacity:1;" d="M 89.84375 179.6875 L 11.71875 179.6875 C 5.25 179.6875 0 174.4375 0 167.96875 C 0 161.5 5.25 156.25 11.71875 156.25 L 78.125 156.25 L 78.125 11.71875 C 78.125 5.25 83.375 0 89.84375 0 C 96.3125 0 101.5625 5.25 101.5625 11.71875 L 101.5625 167.96875 C 101.5625 174.4375 96.3125 179.6875 89.84375 179.6875 Z M 89.84375 179.6875 "/><path style=" stroke:none;fill-rule:nonzero;fill:rgb(100%,100%,100%);fill-opacity:1;" d="M 363.28125 242.1875 L 128.90625 242.1875 C 122.4375 242.1875 117.1875 236.9375 117.1875 230.46875 L 117.1875 11.71875 C 117.1875 5.25 122.4375 0 128.90625 0 C 135.375 0 140.625 5.25 140.625 11.71875 L 140.625 218.75 L 363.28125 218.75 C 369.75 218.75 375 224 375 230.46875 C 375 236.9375 369.75 242.1875 363.28125 242.1875 Z M 363.28125 242.1875 "/><path style=" stroke:none;fill-rule:nonzero;fill:rgb(100%,100%,100%);fill-opacity:1;" d="M 89.84375 375 C 83.375 375 78.125 369.75 78.125 363.28125 L 78.125 218.75 L 11.71875 218.75 C 5.25 218.75 0 213.5 0 207.03125 C 0 200.5625 5.25 195.3125 11.71875 195.3125 L 89.84375 195.3125 C 96.3125 195.3125 101.5625 200.5625 101.5625 207.03125 L 101.5625 363.28125 C 101.5625 369.75 96.3125 375 89.84375 375 Z M 89.84375 375 "/><path style=" stroke:none;fill-rule:nonzero;fill:rgb(100%,100%,100%);fill-opacity:1;" d="M 128.90625 375 C 122.4375 375 117.1875 369.75 117.1875 363.28125 L 117.1875 269.53125 C 117.1875 263.0625 122.4375 257.8125 128.90625 257.8125 L 363.28125 257.8125 C 369.75 257.8125 375 263.0625 375 269.53125 C 375 276 369.75 281.25 363.28125 281.25 L 140.625 281.25 L 140.625 363.28125 C 140.625 369.75 135.375 375 128.90625 375 Z M 128.90625 375 "/><path style=" stroke:none;fill-rule:nonzero;fill:rgb(100%,100%,100%);fill-opacity:1;" d="M 89.84375 85.9375 L 42.96875 85.9375 C 36.5 85.9375 31.25 80.6875 31.25 74.21875 C 31.25 67.75 36.5 62.5 42.96875 62.5 L 89.84375 62.5 C 96.3125 62.5 101.5625 67.75 101.5625 74.21875 C 101.5625 80.6875 96.3125 85.9375 89.84375 85.9375 Z M 89.84375 85.9375 "/><path style=" stroke:none;fill-rule:nonzero;fill:rgb(100%,100%,100%);fill-opacity:1;" d="M 253.90625 343.75 L 214.84375 343.75 C 208.375 343.75 203.125 338.5 203.125 332.03125 L 203.125 269.53125 C 203.125 263.0625 208.375 257.8125 214.84375 257.8125 C 221.3125 257.8125 226.5625 263.0625 226.5625 269.53125 L 226.5625 320.3125 L 253.90625 320.3125 C 260.375 320.3125 265.625 325.5625 265.625 332.03125 C 265.625 338.5 260.375 343.75 253.90625 343.75 Z M 253.90625 343.75 "/><path style=" stroke:none;fill-rule:nonzero;fill:rgb(100%,100%,100%);fill-opacity:1;" d="M 210.9375 156.25 L 128.90625 156.25 C 122.4375 156.25 117.1875 151 117.1875 144.53125 C 117.1875 138.0625 122.4375 132.8125 128.90625 132.8125 L 210.9375 132.8125 C 217.40625 132.8125 222.65625 138.0625 222.65625 144.53125 C 222.65625 151 217.40625 156.25 210.9375 156.25 Z M 210.9375 156.25 "/><path style=" stroke:none;fill-rule:nonzero;fill:rgb(100%,100%,100%);fill-opacity:1;" d="M 42.96875 265.625 C 36.5 265.625 31.25 260.375 31.25 253.90625 L 31.25 207.03125 C 31.25 200.5625 36.5 195.3125 42.96875 195.3125 C 49.4375 195.3125 54.6875 200.5625 54.6875 207.03125 L 54.6875 253.90625 C 54.6875 260.375 49.4375 265.625 42.96875 265.625 Z M 42.96875 265.625 "/><path style=" stroke:none;fill-rule:nonzero;fill:rgb(100%,100%,100%);fill-opacity:1;" d="M 296.875 203.125 C 294.15625 203.125 291.453125 202.1875 289.265625 200.3125 C 286.375 197.84375 218.75 139.296875 218.75 79.09375 C 218.75 35.484375 253.796875 0 296.875 0 C 339.953125 0 375 35.484375 375 79.09375 C 375 139.296875 307.375 197.84375 304.484375 200.3125 C 302.296875 202.1875 299.59375 203.125 296.875 203.125 Z M 296.875 23.4375 C 266.71875 23.4375 242.1875 48.40625 242.1875 79.09375 C 242.1875 117.875 280.25 159.203125 296.875 175.40625 C 313.5 159.203125 351.5625 117.875 351.5625 79.09375 C 351.5625 48.40625 327.03125 23.4375 296.875 23.4375 Z M 296.875 23.4375 "/><path style=" stroke:none;fill-rule:nonzero;fill:rgb(100%,100%,100%);fill-opacity:1;" d="M 296.875 109.375 C 279.640625 109.375 265.625 95.359375 265.625 78.125 C 265.625 60.890625 279.640625 46.875 296.875 46.875 C 314.109375 46.875 328.125 60.890625 328.125 78.125 C 328.125 95.359375 314.109375 109.375 296.875 109.375 Z M 296.875 70.3125 C 292.5625 70.3125 289.0625 73.828125 289.0625 78.125 C 289.0625 82.421875 292.5625 85.9375 296.875 85.9375 C 301.1875 85.9375 304.6875 82.421875 304.6875 78.125 C 304.6875 73.828125 301.1875 70.3125 296.875 70.3125 Z M 296.875 70.3125 "/></g></svg>