<?xml version="1.0" encoding="UTF-8"?><svg xmlns="http://www.w3.org/2000/svg" xmlns:xlink="http://www.w3.org/1999/xlink" contentScriptType="text/ecmascript" width="1012.5pt" zoomAndPan="magnify" contentStyleType="text/css" viewBox="0 0 1012.5 487.499991" height="487.499991pt" preserveAspectRatio="xMidYMid meet" version="1.2"><defs><clipPath xml:id="clip1" id="clip1"><path d="M 151 55 L 1011.730469 55 L 1011.730469 487 L 151 487 Z M 151 55 "/></clipPath><clipPath xml:id="clip2" id="clip2"><path d="M 95 22 L 987 22 L 987 487 L 95 487 Z M 95 22 "/></clipPath><clipPath xml:id="clip3" id="clip3"><path d="M 0.269531 22 L 236 22 L 236 368 L 0.269531 368 Z M 0.269531 22 "/></clipPath><clipPath xml:id="clip4" id="clip4"><path d="M 135 22 L 521 22 L 521 487 L 135 487 Z M 135 22 "/></clipPath><clipPath xml:id="clip5" id="clip5"><path d="M 673 0 L 987 0 L 987 487 L 673 487 Z M 673 0 "/></clipPath><clipPath xml:id="clip6" id="clip6"><path d="M 0.269531 31 L 201 31 L 201 237 L 0.269531 237 Z M 0.269531 31 "/></clipPath><clipPath xml:id="clip7" id="clip7"><path d="M 880 119 L 1011.730469 119 L 1011.730469 325 L 880 325 Z M 880 119 "/></clipPath><clipPath xml:id="clip8" id="clip8"><path d="M 826 305 L 1011.730469 305 L 1011.730469 487 L 826 487 Z M 826 305 "/></clipPath><clipPath xml:id="clip9" id="clip9"><path d="M 294 402 L 502 402 L 502 487 L 294 487 Z M 294 402 "/></clipPath><clipPath xml:id="clip10" id="clip10"><path d="M 819 204 L 1011.730469 204 L 1011.730469 410 L 819 410 Z M 819 204 "/></clipPath><clipPath xml:id="clip11" id="clip11"><path d="M 663 471 L 695 471 L 695 487 L 663 487 Z M 663 471 "/></clipPath><clipPath xml:id="clip12" id="clip12"><path d="M 577 384 L 782 384 L 782 487 L 577 487 Z M 577 384 "/></clipPath><clipPath xml:id="clip13" id="clip13"><path d="M 158 323 L 364 323 L 364 487 L 158 487 Z M 158 323 "/></clipPath><clipPath xml:id="clip14" id="clip14"><path d="M 772 471 L 804 471 L 804 487 L 772 487 Z M 772 471 "/></clipPath><clipPath xml:id="clip15" id="clip15"><path d="M 686 384 L 891 384 L 891 487 L 686 487 Z M 686 384 "/></clipPath><clipPath xml:id="clip16" id="clip16"><path d="M 0.269531 242 L 143 242 L 143 447 L 0.269531 447 Z M 0.269531 242 "/></clipPath></defs><g xml:id="surface1" id="surface1"><g clip-rule="nonzero" clip-path="url(#clip1)"><path style="fill:none;stroke-width:85.039001;stroke-linecap:round;stroke-linejoin:round;stroke:rgb(41.958618%,70.979309%,99.609375%);stroke-opacity:1;stroke-miterlimit:22.926001;" d="M 2750.295746 7231.545392 L 3951.081523 7231.545392 C 4029.188152 7231.545392 4092.867442 7167.90639 4092.867442 7089.807744 L 4092.867442 5828.2971 C 4092.867442 5750.198454 4156.463816 5686.559452 4234.570445 5686.559452 L 5788.577284 5686.559452 C 5866.683913 5686.559452 5930.363203 5750.198454 5930.363203 5828.2971 L 5930.363203 7959.789369 C 5930.363203 8037.888014 5994.001035 8101.568448 6072.066206 8101.568448 L 7003.583111 8101.568448 C 7081.68974 8101.568448 7145.36903 8037.888014 7145.36903 7959.789369 L 7145.36903 7763.279089 C 7145.36903 7685.221875 7081.68974 7621.582873 7003.583111 7621.582873 L 6784.561178 7621.582873 C 6706.496007 7621.582873 6642.858175 7685.221875 6642.858175 7763.279089 L 6642.858175 8792.316789 C 6642.858175 8870.374003 6706.496007 8934.054437 6784.561178 8934.054437 L 8863.590496 8934.054437 C 8941.697125 8934.054437 9005.334957 8870.374003 9005.334957 8792.316789 L 9005.334957 6525.798798 C 9005.334957 6447.700152 8941.697125 6384.061149 8863.590496 6384.061149 L 5337.05961 6384.061149 C 5258.994439 6384.061149 5195.315149 6320.380715 5195.315149 6242.323501 L 5195.315149 6233.291403 C 5195.315149 6155.192757 5258.994439 6091.553755 5337.05961 6091.553755 L 7333.587765 6091.553755 C 7411.694394 6091.553755 7475.332226 6155.192757 7475.332226 6233.291403 L 7475.332226 6834.795986 C 7475.332226 6912.894631 7538.970058 6976.575066 7617.076687 6976.575066 L 10266.110274 6976.575066 C 10344.216903 6976.575066 10407.813277 6912.894631 10407.813277 6834.795986 L 10407.813277 4365.801559 C 10407.813277 4287.702913 10344.216903 4224.063911 10266.110274 4224.063911 L 7099.558083 4224.063911 C 7021.492911 4224.063911 6957.855079 4160.383477 6957.855079 4082.326263 L 6957.855079 3825.781534 C 6957.855079 3747.72432 6894.175789 3684.043885 6816.110618 3684.043885 L 6709.56389 3684.043885 C 6631.498718 3684.043885 6567.860886 3747.72432 6567.860886 3825.781534 L 6567.860886 4074.785704 C 6567.860886 4152.884349 6504.181596 4216.564784 6426.074967 4216.564784 L 4549.56735 4216.564784 C 4471.502178 4216.564784 4407.864346 4280.203786 4407.864346 4358.302432 L 4407.864346 5057.295669 C 4407.864346 5135.394314 4471.502178 5199.074749 4549.56735 5199.074749 L 8758.577709 5199.074749 C 8836.684338 5199.074749 8900.363628 5135.394314 8900.363628 5057.295669 L 8900.363628 3825.781534 C 8900.363628 3747.72432 8964.042918 3684.043885 9042.066631 3684.043885 L 11795.325306 3684.043885 " transform="matrix(0.0942222,0,0,-0.0942818,-103.744264,901.701587)"/></g><g clip-rule="nonzero" clip-path="url(#clip2)"><path style="fill:none;stroke-width:85.039001;stroke-linecap:round;stroke-linejoin:round;stroke:rgb(30.198669%,50.979614%,71.369934%);stroke-opacity:1;stroke-miterlimit:22.926001;" d="M 11532.814066 7831.558436 L 11532.814066 6240.79053 C 11532.814066 6162.691885 11469.217692 6099.052882 11391.111063 6099.052882 L 9634.582524 6099.052882 C 9556.475895 6099.052882 9492.796605 6162.691885 9492.796605 6240.79053 L 9492.796605 7097.306871 C 9492.796605 7175.405517 9556.475895 7239.044519 9634.582524 7239.044519 L 9711.113754 7239.044519 C 9789.137467 7239.044519 9852.816757 7175.405517 9852.816757 7097.306871 L 9852.816757 3668.299861 C 9852.816757 3590.242647 9789.137467 3526.562213 9711.113754 3526.562213 L 7932.073591 3526.562213 C 7853.966962 3526.562213 7790.32913 3590.242647 7790.32913 3668.299861 L 7790.32913 4389.79048 C 7790.32913 4467.889126 7726.64984 4531.56956 7648.584669 4531.56956 L 3439.57431 4531.56956 C 3361.467681 4531.56956 3297.829849 4467.889126 3297.829849 4389.79048 L 3297.829849 3825.781534 C 3297.829849 3747.72432 3234.150559 3684.043885 3156.085388 3684.043885 L 2299.565772 3684.043885 C 2221.5006 3684.043885 2157.82131 3747.72432 2157.82131 3825.781534 L 2157.82131 5979.812616 C 2157.82131 6057.911261 2221.5006 6121.550264 2299.565772 6121.550264 L 4153.603223 6121.550264 C 4231.626936 6121.550264 4295.306226 6185.189266 4295.306226 6263.287912 L 4295.306226 8147.308982 C 4295.306226 8225.407627 4358.985516 8289.04663 4437.050688 8289.04663 L 7483.582342 8289.04663 C 7561.647513 8289.04663 7625.326803 8352.727064 7625.326803 8430.784278 L 7625.326803 9286.554849 " transform="matrix(0.0942222,0,0,-0.0942818,-103.744264,901.701587)"/></g><g clip-rule="nonzero" clip-path="url(#clip3)"><path style="fill:none;stroke-width:85.039001;stroke-linecap:round;stroke-linejoin:round;stroke:rgb(46.269226%,80.778503%,88.62915%);stroke-opacity:1;stroke-miterlimit:22.926001;" d="M 1152.7996 9286.554849 L 1152.7996 8280.801733 C 1152.7996 8202.744519 1216.47889 8139.064085 1294.585519 8139.064085 L 3411.092753 8139.064085 C 3489.157924 8139.064085 3552.795756 8075.383651 3552.795756 7997.326436 L 3552.795756 5850.794482 C 3552.795756 5772.737268 3489.157924 5709.056833 3411.092753 5709.056833 L 1152.7996 5709.056833 " transform="matrix(0.0942222,0,0,-0.0942818,-103.744264,901.701587)"/></g><g clip-rule="nonzero" clip-path="url(#clip4)"><path style="fill:none;stroke-width:85.039001;stroke-linecap:round;stroke-linejoin:round;stroke:rgb(46.269226%,80.778503%,88.62915%);stroke-opacity:1;stroke-miterlimit:22.926001;" d="M 5157.795776 9286.554849 L 5157.795776 7200.803114 C 5157.795776 7122.7459 5221.475066 7059.065465 5299.581695 7059.065465 L 6441.082717 7059.065465 C 6519.147888 7059.065465 6582.827178 7122.7459 6582.827178 7200.803114 L 6582.827178 7292.325611 C 6582.827178 7370.382826 6519.147888 7434.06326 6441.082717 7434.06326 L 6439.590233 7434.06326 C 6361.483604 7434.06326 6297.804314 7370.382826 6297.804314 7292.325611 L 6297.804314 4893.930703 C 6297.804314 4815.873489 6234.125024 4752.193055 6156.101311 4752.193055 L 2719.575463 4752.193055 C 2641.468834 4752.193055 2577.831002 4688.512621 2577.831002 4610.455407 L 2577.831002 4380.799814 C 2577.831002 4302.7426 2641.468834 4239.062165 2719.575463 4239.062165 L 2751.083445 4239.062165 C 2829.148617 4239.062165 2892.827906 4302.7426 2892.827906 4380.799814 L 2892.827906 5499.08127 " transform="matrix(0.0942222,0,0,-0.0942818,-103.744264,901.701587)"/></g><g clip-rule="nonzero" clip-path="url(#clip5)"><path style="fill:none;stroke-width:85.039001;stroke-linecap:round;stroke-linejoin:round;stroke:rgb(46.269226%,80.778503%,88.62915%);stroke-opacity:1;stroke-miterlimit:22.926001;" d="M 10603.991923 9521.845146 L 10603.991923 8085.782993 C 10603.991923 8007.725779 10540.395549 7944.045345 10462.28892 7944.045345 L 8434.584446 7944.045345 C 8356.477817 7944.045345 8292.798527 7880.406342 8292.798527 7802.307696 L 8292.798527 5850.794482 C 8292.798527 5772.737268 8356.477817 5709.056833 8434.584446 5709.056833 L 10836.073085 5709.056833 C 10914.221172 5709.056833 10977.817546 5645.376399 10977.817546 5567.319185 L 10977.817546 4561.317479 C 10977.817546 4483.301697 11041.496836 4419.621262 11119.603465 4419.621262 L 11391.111063 4419.621262 C 11469.217692 4419.621262 11532.814066 4355.940828 11532.814066 4277.842183 L 11532.814066 3465.781994 C 11532.814066 3387.72478 11469.217692 3324.044346 11391.111063 3324.044346 L 10347.823738 3324.044346 " transform="matrix(0.0942222,0,0,-0.0942818,-103.744264,901.701587)"/></g><path style=" stroke:none;fill-rule:evenodd;fill:rgb(30.198669%,50.979614%,71.369934%);fill-opacity:1;" d="M 87.234375 118.609375 L 109.078125 118.609375 C 111.71875 118.609375 113.875 120.769531 113.875 123.410156 L 113.875 145.265625 C 113.875 147.902344 111.71875 150.0625 109.078125 150.0625 L 87.234375 150.0625 C 84.597656 150.0625 82.441406 147.902344 82.441406 145.265625 L 82.441406 123.410156 C 82.441406 120.769531 84.597656 118.609375 87.234375 118.609375 "/><g clip-rule="nonzero" clip-path="url(#clip6)"><path style="fill:none;stroke-width:28.346001;stroke-linecap:butt;stroke-linejoin:miter;stroke:rgb(99.609375%,75.689697%,0%);stroke-opacity:1;stroke-miterlimit:22.926001;" d="M 2026.897354 8305.867877 L 2258.729769 8305.867877 C 2286.755289 8305.867877 2309.640034 8282.956178 2309.640034 8254.948388 L 2309.640034 8023.13835 C 2309.640034 7995.171991 2286.755289 7972.260293 2258.729769 7972.260293 L 2026.897354 7972.260293 C 1998.913291 7972.260293 1976.028546 7995.171991 1976.028546 8023.13835 L 1976.028546 8254.948388 C 1976.028546 8282.956178 1998.913291 8305.867877 2026.897354 8305.867877 Z M 2026.897354 8305.867877 " transform="matrix(0.0942222,0,0,-0.0942818,-103.744264,901.701587)"/></g><path style=" stroke:none;fill-rule:evenodd;fill:rgb(99.609375%,75.689697%,0%);fill-opacity:1;" d="M 87.195312 123.585938 L 109.117188 123.585938 C 109.234375 123.585938 109.332031 123.679688 109.332031 123.800781 L 109.332031 131.730469 C 109.332031 131.847656 109.234375 131.941406 109.117188 131.941406 L 87.195312 131.941406 C 87.082031 131.941406 86.984375 131.847656 86.984375 131.730469 L 86.984375 123.800781 C 86.984375 123.679688 87.082031 123.585938 87.195312 123.585938 "/><path style=" stroke:none;fill-rule:evenodd;fill:rgb(99.609375%,75.689697%,0%);fill-opacity:1;" d="M 87.195312 136.734375 L 109.117188 136.734375 C 109.234375 136.734375 109.332031 136.828125 109.332031 136.945312 L 109.332031 144.871094 C 109.332031 144.992188 109.234375 145.085938 109.117188 145.085938 L 87.195312 145.085938 C 87.082031 145.085938 86.984375 144.992188 86.984375 144.871094 L 86.984375 136.945312 C 86.984375 136.828125 87.082031 136.734375 87.195312 136.734375 "/><path style=" stroke:none;fill-rule:evenodd;fill:rgb(30.198669%,50.979614%,71.369934%);fill-opacity:1;" d="M 686.839844 48.453125 L 686.839844 70.3125 C 686.839844 72.949219 684.679688 75.109375 682.042969 75.109375 L 660.195312 75.109375 C 657.558594 75.109375 655.402344 72.949219 655.402344 70.3125 L 655.402344 48.453125 C 655.402344 45.8125 657.558594 43.65625 660.195312 43.65625 L 682.042969 43.65625 C 684.679688 43.65625 686.839844 45.8125 686.839844 48.453125 "/><path style="fill:none;stroke-width:28.346001;stroke-linecap:butt;stroke-linejoin:miter;stroke:rgb(99.609375%,75.689697%,0%);stroke-opacity:1;stroke-miterlimit:22.926001;" d="M 8390.639103 9049.980172 L 8390.639103 8818.128702 C 8390.639103 8790.162343 8367.7129 8767.250645 8339.728837 8767.250645 L 8107.854964 8767.250645 C 8079.870902 8767.250645 8056.986157 8790.162343 8056.986157 8818.128702 L 8056.986157 9049.980172 C 8056.986157 9077.987962 8079.870902 9100.858229 8107.854964 9100.858229 L 8339.728837 9100.858229 C 8367.7129 9100.858229 8390.639103 9077.987962 8390.639103 9049.980172 Z M 8390.639103 9049.980172 " transform="matrix(0.0942222,0,0,-0.0942818,-103.744264,901.701587)"/><path style=" stroke:none;fill-rule:evenodd;fill:rgb(99.609375%,75.689697%,0%);fill-opacity:1;" d="M 681.863281 48.417969 L 681.863281 70.351562 C 681.863281 70.46875 681.765625 70.5625 681.652344 70.5625 L 673.726562 70.5625 C 673.609375 70.5625 673.515625 70.46875 673.515625 70.351562 L 673.515625 48.417969 C 673.515625 48.300781 673.609375 48.203125 673.726562 48.203125 L 681.652344 48.203125 C 681.765625 48.203125 681.863281 48.300781 681.863281 48.417969 "/><path style=" stroke:none;fill-rule:evenodd;fill:rgb(99.609375%,75.689697%,0%);fill-opacity:1;" d="M 668.726562 48.417969 L 668.726562 70.351562 C 668.726562 70.46875 668.628906 70.5625 668.511719 70.5625 L 660.589844 70.5625 C 660.472656 70.5625 660.378906 70.46875 660.378906 70.351562 L 660.378906 48.417969 C 660.378906 48.300781 660.472656 48.203125 660.589844 48.203125 L 668.511719 48.203125 C 668.628906 48.203125 668.726562 48.300781 668.726562 48.417969 "/><path style=" stroke:none;fill-rule:evenodd;fill:rgb(30.198669%,50.979614%,71.369934%);fill-opacity:1;" d="M 440.566406 320.246094 L 440.566406 342.109375 C 440.566406 344.75 438.40625 346.910156 435.769531 346.910156 L 413.921875 346.910156 C 411.285156 346.910156 409.128906 344.75 409.128906 342.109375 L 409.128906 320.246094 C 409.128906 317.609375 411.285156 315.453125 413.921875 315.453125 L 435.769531 315.453125 C 438.40625 315.453125 440.566406 317.609375 440.566406 320.246094 "/><path style="fill:none;stroke-width:28.346001;stroke-linecap:butt;stroke-linejoin:miter;stroke:rgb(99.609375%,75.689697%,0%);stroke-opacity:1;stroke-miterlimit:22.926001;" d="M 5776.886164 6167.207934 L 5776.886164 5935.315032 C 5776.886164 5907.307242 5753.959962 5884.395544 5725.975899 5884.395544 L 5494.102026 5884.395544 C 5466.117963 5884.395544 5443.233218 5907.307242 5443.233218 5935.315032 L 5443.233218 6167.207934 C 5443.233218 6195.174292 5466.117963 6218.044559 5494.102026 6218.044559 L 5725.975899 6218.044559 C 5753.959962 6218.044559 5776.886164 6195.174292 5776.886164 6167.207934 Z M 5776.886164 6167.207934 " transform="matrix(0.0942222,0,0,-0.0942818,-103.744264,901.701587)"/><path style=" stroke:none;fill-rule:evenodd;fill:rgb(99.609375%,75.689697%,0%);fill-opacity:1;" d="M 435.589844 320.214844 L 435.589844 342.144531 C 435.589844 342.265625 435.492188 342.359375 435.378906 342.359375 L 427.457031 342.359375 C 427.335938 342.359375 427.242188 342.265625 427.242188 342.144531 L 427.242188 320.214844 C 427.242188 320.097656 427.335938 320 427.457031 320 L 435.378906 320 C 435.492188 320 435.589844 320.097656 435.589844 320.214844 "/><path style=" stroke:none;fill-rule:evenodd;fill:rgb(99.609375%,75.689697%,0%);fill-opacity:1;" d="M 422.453125 320.214844 L 422.453125 342.144531 C 422.453125 342.265625 422.359375 342.359375 422.238281 342.359375 L 414.316406 342.359375 C 414.199219 342.359375 414.101562 342.265625 414.101562 342.144531 L 414.101562 320.214844 C 414.101562 320.097656 414.199219 320 414.316406 320 L 422.238281 320 C 422.359375 320 422.453125 320.097656 422.453125 320.214844 "/><path style=" stroke:none;fill-rule:evenodd;fill:rgb(30.198669%,50.979614%,71.369934%);fill-opacity:1;" d="M 998.617188 211 L 998.617188 232.859375 C 998.617188 235.496094 996.460938 237.660156 993.828125 237.660156 L 971.980469 237.660156 C 969.34375 237.660156 967.1875 235.496094 967.1875 232.859375 L 967.1875 211 C 967.1875 208.363281 969.34375 206.203125 971.980469 206.203125 L 993.828125 206.203125 C 996.460938 206.203125 998.617188 208.363281 998.617188 211 "/><g clip-rule="nonzero" clip-path="url(#clip7)"><path style="fill:none;stroke-width:28.346001;stroke-linecap:butt;stroke-linejoin:miter;stroke:rgb(99.609375%,75.689697%,0%);stroke-opacity:1;stroke-miterlimit:22.926001;" d="M 11699.599081 7325.926673 L 11699.599081 7094.075203 C 11699.599081 7066.108845 11676.714336 7043.155715 11648.771731 7043.155715 L 11416.897859 7043.155715 C 11388.913796 7043.155715 11366.029051 7066.108845 11366.029051 7094.075203 L 11366.029051 7325.926673 C 11366.029051 7353.893032 11388.913796 7376.80473 11416.897859 7376.80473 L 11648.771731 7376.80473 C 11676.714336 7376.80473 11699.599081 7353.893032 11699.599081 7325.926673 Z M 11699.599081 7325.926673 " transform="matrix(0.0942222,0,0,-0.0942818,-103.744264,901.701587)"/></g><path style=" stroke:none;fill-rule:evenodd;fill:rgb(99.609375%,75.689697%,0%);fill-opacity:1;" d="M 993.652344 210.964844 L 993.652344 232.898438 C 993.652344 233.015625 993.546875 233.109375 993.4375 233.109375 L 985.511719 233.109375 C 985.398438 233.109375 985.292969 233.015625 985.292969 232.898438 L 985.292969 210.964844 C 985.292969 210.847656 985.398438 210.753906 985.511719 210.753906 L 993.4375 210.753906 C 993.546875 210.753906 993.652344 210.847656 993.652344 210.964844 "/><path style=" stroke:none;fill-rule:evenodd;fill:rgb(99.609375%,75.689697%,0%);fill-opacity:1;" d="M 980.507812 210.964844 L 980.507812 232.898438 C 980.507812 233.015625 980.414062 233.109375 980.300781 233.109375 L 972.375 233.109375 C 972.253906 233.109375 972.160156 233.015625 972.160156 232.898438 L 972.160156 210.964844 C 972.160156 210.847656 972.253906 210.753906 972.375 210.753906 L 980.300781 210.753906 C 980.414062 210.753906 980.507812 210.847656 980.507812 210.964844 "/><path style=" stroke:none;fill-rule:evenodd;fill:rgb(100%,39.99939%,19.999695%);fill-opacity:1;" d="M 929.722656 425.382812 C 938.917969 425.382812 946.417969 417.882812 946.417969 408.675781 C 946.417969 399.476562 938.917969 391.972656 929.722656 391.972656 C 920.523438 391.972656 913.035156 399.476562 913.035156 408.675781 C 913.035156 417.882812 920.523438 425.382812 929.722656 425.382812 "/><g clip-rule="nonzero" clip-path="url(#clip8)"><path style="fill:none;stroke-width:28.346001;stroke-linecap:butt;stroke-linejoin:miter;stroke:rgb(100%,79.998779%,0%);stroke-opacity:1;stroke-miterlimit:22.926001;" d="M 10968.40661 5052.075282 C 11065.998438 5052.075282 11145.59755 5131.624035 11145.59755 5229.278416 C 11145.59755 5326.849933 11065.998438 5406.440118 10968.40661 5406.440118 C 10870.773323 5406.440118 10791.298584 5326.849933 10791.298584 5229.278416 C 10791.298584 5131.624035 10870.773323 5052.075282 10968.40661 5052.075282 Z M 10968.40661 5052.075282 " transform="matrix(0.0942222,0,0,-0.0942818,-103.744264,901.701587)"/></g><path style=" stroke:none;fill-rule:evenodd;fill:rgb(100%,100%,100%);fill-opacity:1;" d="M 918.414062 409.453125 L 941.039062 400.679688 L 941.039062 407.902344 L 918.414062 416.675781 L 918.414062 409.453125 "/><path style=" stroke:none;fill-rule:evenodd;fill:rgb(100%,39.99939%,19.999695%);fill-opacity:1;" d="M 705.003906 317.195312 C 714.203125 317.195312 721.699219 309.6875 721.699219 300.488281 C 721.699219 291.285156 714.203125 283.785156 705.003906 283.785156 C 695.8125 283.785156 688.3125 291.285156 688.3125 300.488281 C 688.3125 309.6875 695.8125 317.195312 705.003906 317.195312 "/><path style="fill:none;stroke-width:28.346001;stroke-linecap:butt;stroke-linejoin:miter;stroke:rgb(100%,79.998779%,0%);stroke-opacity:1;stroke-miterlimit:22.926001;" d="M 8583.418203 6199.566046 C 8681.05149 6199.566046 8760.609144 6279.197663 8760.609144 6376.76918 C 8760.609144 6474.38213 8681.05149 6553.930883 8583.418203 6553.930883 C 8485.867833 6553.930883 8406.26872 6474.38213 8406.26872 6376.76918 C 8406.26872 6279.197663 8485.867833 6199.566046 8583.418203 6199.566046 Z M 8583.418203 6199.566046 " transform="matrix(0.0942222,0,0,-0.0942818,-103.744264,901.701587)"/><path style=" stroke:none;fill-rule:evenodd;fill:rgb(100%,100%,100%);fill-opacity:1;" d="M 693.695312 301.265625 L 716.316406 292.488281 L 716.316406 299.710938 L 693.695312 308.488281 L 693.695312 301.265625 "/><path style=" stroke:none;fill-rule:evenodd;fill:rgb(100%,39.99939%,19.999695%);fill-opacity:1;" d="M 412.886719 134.460938 C 422.085938 134.460938 429.582031 126.957031 429.582031 117.753906 C 429.582031 108.550781 422.085938 101.046875 412.886719 101.046875 C 403.695312 101.046875 396.191406 108.550781 396.191406 117.753906 C 396.191406 126.957031 403.695312 134.460938 412.886719 134.460938 "/><path style="fill:none;stroke-width:28.346001;stroke-linecap:butt;stroke-linejoin:miter;stroke:rgb(100%,79.998779%,0%);stroke-opacity:1;stroke-miterlimit:22.926001;" d="M 5483.11569 8137.738272 C 5580.748976 8137.738272 5660.306631 8217.328457 5660.306631 8314.982838 C 5660.306631 8412.554355 5580.748976 8492.14454 5483.11569 8492.14454 C 5385.565319 8492.14454 5305.924749 8412.554355 5305.924749 8314.982838 C 5305.924749 8217.328457 5385.565319 8137.738272 5483.11569 8137.738272 Z M 5483.11569 8137.738272 " transform="matrix(0.0942222,0,0,-0.0942818,-103.744264,901.701587)"/><path style=" stroke:none;fill-rule:evenodd;fill:rgb(100%,100%,100%);fill-opacity:1;" d="M 401.578125 118.527344 L 424.203125 109.753906 L 424.203125 116.980469 L 401.578125 125.753906 L 401.578125 118.527344 "/><path style=" stroke:none;fill-rule:evenodd;fill:rgb(100%,39.99939%,19.999695%);fill-opacity:1;" d="M 197 380.320312 C 206.199219 380.320312 213.695312 372.8125 213.695312 363.613281 C 213.695312 354.410156 206.199219 346.90625 197 346.90625 C 187.808594 346.90625 180.304688 354.410156 180.304688 363.613281 C 180.304688 372.8125 187.808594 380.320312 197 380.320312 "/><path style="fill:none;stroke-width:28.346001;stroke-linecap:butt;stroke-linejoin:miter;stroke:rgb(100%,79.998779%,0%);stroke-opacity:1;stroke-miterlimit:22.926001;" d="M 3191.86353 5530.030707 C 3289.496817 5530.030707 3369.054471 5609.662324 3369.054471 5707.233841 C 3369.054471 5804.84679 3289.496817 5884.436975 3191.86353 5884.436975 C 3094.31316 5884.436975 3014.672589 5804.84679 3014.672589 5707.233841 C 3014.672589 5609.662324 3094.31316 5530.030707 3191.86353 5530.030707 Z M 3191.86353 5530.030707 " transform="matrix(0.0942222,0,0,-0.0942818,-103.744264,901.701587)"/><path style=" stroke:none;fill-rule:evenodd;fill:rgb(100%,100%,100%);fill-opacity:1;" d="M 185.691406 364.386719 L 208.3125 355.613281 L 208.3125 362.835938 L 185.691406 371.613281 L 185.691406 364.386719 "/><g clip-rule="nonzero" clip-path="url(#clip9)"><path style="fill:none;stroke-width:28.346001;stroke-linecap:butt;stroke-linejoin:miter;stroke:rgb(100%,79.998779%,0%);stroke-opacity:1;stroke-miterlimit:22.926001;" d="M 5327.109721 4020.510252 C 5424.70155 4020.510252 5504.300662 4100.100437 5504.300662 4197.713386 C 5504.300662 4295.284904 5424.70155 4374.875089 5327.109721 4374.875089 C 5229.476435 4374.875089 5149.877322 4295.284904 5149.877322 4197.713386 C 5149.877322 4100.100437 5229.476435 4020.510252 5327.109721 4020.510252 Z M 5327.109721 4020.510252 " transform="matrix(0.0942222,0,0,-0.0942818,-103.744264,901.701587)"/></g><path style=" stroke:none;fill-rule:evenodd;fill:rgb(30.198669%,30.198669%,30.198669%);fill-opacity:1;" d="M 921.996094 291.367188 C 930.550781 291.367188 937.484375 298.308594 937.484375 306.871094 L 921.996094 322.378906 L 906.496094 306.871094 C 906.496094 298.308594 913.433594 291.367188 921.996094 291.367188 "/><g clip-rule="nonzero" clip-path="url(#clip10)"><path style="fill:none;stroke-width:28.346001;stroke-linecap:butt;stroke-linejoin:miter;stroke:rgb(100%,79.998779%,0%);stroke-opacity:1;stroke-miterlimit:22.926001;" d="M 10886.402941 6473.512065 C 10977.195678 6473.512065 11050.783399 6399.888037 11050.783399 6309.069877 L 10886.402941 6144.586257 L 10721.898108 6309.069877 C 10721.898108 6399.888037 10795.527287 6473.512065 10886.402941 6473.512065 Z M 10886.402941 6473.512065 " transform="matrix(0.0942222,0,0,-0.0942818,-103.744264,901.701587)"/></g><path style=" stroke:none;fill-rule:evenodd;fill:rgb(100%,79.998779%,0%);fill-opacity:1;" d="M 180.304688 98.101562 C 188.863281 98.101562 195.800781 105.039062 195.800781 113.605469 L 180.304688 129.109375 L 164.8125 113.605469 C 164.8125 105.039062 171.75 98.101562 180.304688 98.101562 "/><path style="fill:none;stroke-width:28.346001;stroke-linecap:butt;stroke-linejoin:miter;stroke:rgb(0%,79.998779%,100%);stroke-opacity:1;stroke-miterlimit:22.926001;" d="M 3014.672589 8523.383999 C 3105.506785 8523.383999 3179.135964 8449.801402 3179.135964 8358.94181 L 3014.672589 8194.499622 L 2850.250673 8358.94181 C 2850.250673 8449.801402 2923.879852 8523.383999 3014.672589 8523.383999 Z M 3014.672589 8523.383999 " transform="matrix(0.0942222,0,0,-0.0942818,-103.744264,901.701587)"/><g clip-rule="nonzero" clip-path="url(#clip11)"><path style=" stroke:none;fill-rule:evenodd;fill:rgb(100%,39.99939%,59.999084%);fill-opacity:1;" d="M 679.300781 471.023438 C 687.859375 471.023438 694.796875 477.96875 694.796875 486.53125 L 679.300781 502.035156 L 663.804688 486.53125 C 663.804688 477.96875 670.742188 471.023438 679.300781 471.023438 "/></g><g clip-rule="nonzero" clip-path="url(#clip12)"><path style="fill:none;stroke-width:28.346001;stroke-linecap:butt;stroke-linejoin:miter;stroke:rgb(100%,79.998779%,0%);stroke-opacity:1;stroke-miterlimit:22.926001;" d="M 8310.625412 4567.987973 C 8401.459607 4567.987973 8475.088786 4494.322513 8475.088786 4403.504354 L 8310.625412 4239.062165 L 8146.162037 4403.504354 C 8146.162037 4494.322513 8219.791216 4567.987973 8310.625412 4567.987973 Z M 8310.625412 4567.987973 " transform="matrix(0.0942222,0,0,-0.0942818,-103.744264,901.701587)"/></g><path style=" stroke:none;fill-rule:evenodd;fill:rgb(100%,39.99939%,0%);fill-opacity:1;" d="M 312.632812 59.605469 C 321.191406 59.605469 328.128906 66.546875 328.128906 75.109375 L 312.632812 90.617188 L 297.136719 75.109375 C 297.136719 66.546875 304.070312 59.605469 312.632812 59.605469 "/><path style="fill:none;stroke-width:28.346001;stroke-linecap:butt;stroke-linejoin:miter;stroke:rgb(50.19989%,50.19989%,50.19989%);stroke-opacity:1;stroke-miterlimit:22.926001;" d="M 4419.099429 8931.692833 C 4509.933625 8931.692833 4583.562804 8858.068805 4583.562804 8767.250645 L 4419.099429 8602.767025 L 4254.636055 8767.250645 C 4254.636055 8858.068805 4328.223776 8931.692833 4419.099429 8931.692833 Z M 4419.099429 8931.692833 " transform="matrix(0.0942222,0,0,-0.0942818,-103.744264,901.701587)"/><path style=" stroke:none;fill-rule:evenodd;fill:rgb(100%,79.998779%,0%);fill-opacity:1;" d="M 740.691406 328.679688 C 749.253906 328.679688 756.1875 335.621094 756.1875 344.183594 L 740.691406 359.6875 L 725.195312 344.183594 C 725.195312 335.621094 732.136719 328.679688 740.691406 328.679688 "/><path style="fill:none;stroke-width:28.346001;stroke-linecap:butt;stroke-linejoin:miter;stroke:rgb(0%,79.998779%,100%);stroke-opacity:1;stroke-miterlimit:22.926001;" d="M 8962.177313 6077.757018 C 9053.052967 6077.757018 9126.640688 6004.13299 9126.640688 5913.31483 L 8962.177313 5748.872642 L 8797.713939 5913.31483 C 8797.713939 6004.13299 8871.384576 6077.757018 8962.177313 6077.757018 Z M 8962.177313 6077.757018 " transform="matrix(0.0942222,0,0,-0.0942818,-103.744264,901.701587)"/><path style=" stroke:none;fill-rule:evenodd;fill:rgb(30.198669%,30.198669%,30.198669%);fill-opacity:1;" d="M 819.394531 98.101562 C 827.949219 98.101562 834.890625 105.042969 834.890625 113.605469 L 819.394531 129.109375 L 803.898438 113.605469 C 803.898438 105.042969 810.835938 98.101562 819.394531 98.101562 "/><path style="fill:none;stroke-width:28.346001;stroke-linecap:butt;stroke-linejoin:miter;stroke:rgb(100%,79.998779%,0%);stroke-opacity:1;stroke-miterlimit:22.926001;" d="M 9797.470499 8523.383999 C 9888.263237 8523.383999 9961.933874 8449.75997 9961.933874 8358.94181 L 9797.470499 8194.499622 L 9633.007125 8358.94181 C 9633.007125 8449.75997 9706.636304 8523.383999 9797.470499 8523.383999 Z M 9797.470499 8523.383999 " transform="matrix(0.0942222,0,0,-0.0942818,-103.744264,901.701587)"/><path style=" stroke:none;fill-rule:evenodd;fill:rgb(30.198669%,30.198669%,30.198669%);fill-opacity:1;" d="M 261.046875 409.878906 C 269.605469 409.878906 276.542969 416.820312 276.542969 425.382812 L 261.046875 440.886719 L 245.550781 425.382812 C 245.550781 416.820312 252.484375 409.878906 261.046875 409.878906 "/><g clip-rule="nonzero" clip-path="url(#clip13)"><path style="fill:none;stroke-width:28.346001;stroke-linecap:butt;stroke-linejoin:miter;stroke:rgb(100%,79.998779%,0%);stroke-opacity:1;stroke-miterlimit:22.926001;" d="M 3871.606784 5216.51747 C 3962.44098 5216.51747 4036.070159 5142.893442 4036.070159 5052.075282 L 3871.606784 4887.633094 L 3707.14341 5052.075282 C 3707.14341 5142.893442 3780.731131 5216.51747 3871.606784 5216.51747 Z M 3871.606784 5216.51747 " transform="matrix(0.0942222,0,0,-0.0942818,-103.744264,901.701587)"/></g><path style=" stroke:none;fill-rule:evenodd;fill:rgb(30.198669%,30.198669%,30.198669%);fill-opacity:1;" d="M 597.0625 348.109375 C 605.625 348.109375 612.5625 355.046875 612.5625 363.613281 L 597.0625 379.117188 L 581.566406 363.613281 C 581.566406 355.046875 588.503906 348.109375 597.0625 348.109375 "/><path style="fill:none;stroke-width:28.346001;stroke-linecap:butt;stroke-linejoin:miter;stroke:rgb(100%,79.998779%,0%);stroke-opacity:1;stroke-miterlimit:22.926001;" d="M 7437.812852 5871.676029 C 7528.688506 5871.676029 7602.317685 5798.093433 7602.317685 5707.233841 L 7437.812852 5542.791653 L 7273.349478 5707.233841 C 7273.349478 5798.093433 7346.978657 5871.676029 7437.812852 5871.676029 Z M 7437.812852 5871.676029 " transform="matrix(0.0942222,0,0,-0.0942818,-103.744264,901.701587)"/><g clip-rule="nonzero" clip-path="url(#clip14)"><path style=" stroke:none;fill-rule:evenodd;fill:rgb(100%,39.99939%,0%);fill-opacity:1;" d="M 788.402344 471.023438 C 796.960938 471.023438 803.898438 477.96875 803.898438 486.53125 L 788.402344 502.035156 L 772.910156 486.53125 C 772.910156 477.96875 779.84375 471.023438 788.402344 471.023438 "/></g><g clip-rule="nonzero" clip-path="url(#clip15)"><path style="fill:none;stroke-width:28.346001;stroke-linecap:butt;stroke-linejoin:miter;stroke:rgb(50.19989%,50.19989%,50.19989%);stroke-opacity:1;stroke-miterlimit:22.926001;" d="M 9468.54375 4567.987973 C 9559.377946 4567.987973 9633.007125 4494.322513 9633.007125 4403.504354 L 9468.54375 4239.062165 L 9304.121834 4403.504354 C 9304.121834 4494.322513 9377.709555 4567.987973 9468.54375 4567.987973 Z M 9468.54375 4567.987973 " transform="matrix(0.0942222,0,0,-0.0942818,-103.744264,901.701587)"/></g><path style=" stroke:none;fill-rule:evenodd;fill:rgb(100%,39.99939%,0%);fill-opacity:1;" d="M 40.566406 328.679688 C 49.125 328.679688 56.0625 335.621094 56.0625 344.183594 L 40.566406 359.6875 L 25.070312 344.183594 C 25.070312 335.621094 32.003906 328.679688 40.566406 328.679688 "/><g clip-rule="nonzero" clip-path="url(#clip16)"><path style="fill:none;stroke-width:28.346001;stroke-linecap:butt;stroke-linejoin:miter;stroke:rgb(50.19989%,50.19989%,50.19989%);stroke-opacity:1;stroke-miterlimit:22.926001;" d="M 1531.600168 6077.757018 C 1622.434364 6077.757018 1696.063543 6004.13299 1696.063543 5913.31483 L 1531.600168 5748.872642 L 1367.136794 5913.31483 C 1367.136794 6004.13299 1440.724515 6077.757018 1531.600168 6077.757018 Z M 1531.600168 6077.757018 " transform="matrix(0.0942222,0,0,-0.0942818,-103.744264,901.701587)"/></g><path style=" stroke:none;fill-rule:evenodd;fill:rgb(100%,39.99939%,59.999084%);fill-opacity:1;" d="M 639.90625 206.648438 C 648.464844 206.648438 655.402344 213.589844 655.402344 222.152344 L 639.90625 237.660156 L 624.414062 222.152344 C 624.414062 213.589844 631.351562 206.648438 639.90625 206.648438 "/><path style="fill:none;stroke-width:28.346001;stroke-linecap:butt;stroke-linejoin:miter;stroke:rgb(100%,79.998779%,0%);stroke-opacity:1;stroke-miterlimit:22.926001;" d="M 7892.522782 7372.081523 C 7983.356978 7372.081523 8056.986157 7298.457495 8056.986157 7207.639335 L 7892.522782 7043.155715 L 7728.100866 7207.639335 C 7728.100866 7298.457495 7801.730045 7372.081523 7892.522782 7372.081523 Z M 7892.522782 7372.081523 " transform="matrix(0.0942222,0,0,-0.0942818,-103.744264,901.701587)"/></g></svg>